<svg id="Icon" xmlns="http://www.w3.org/2000/svg" width="60" height="60" viewBox="0 0 60 60">
  <circle id="Oval" cx="30" cy="30" r="30" fill="#ddd"/>
  <g id="Shape" transform="translate(16 15)">
    <path id="Shape-2" data-name="Shape" d="M0,0H27.05" transform="translate(0 6.011)" fill="none" stroke="#77838f" stroke-linecap="round" stroke-linejoin="round" stroke-width="2"/>
    <path id="Shape-3" data-name="Shape" d="M18.033,30.056H3.006A3.009,3.009,0,0,1,0,27.05V6.011H4.508V3.006A3.009,3.009,0,0,1,7.514,0h6.011a3.009,3.009,0,0,1,3.006,3.006V6.011h4.508V27.05A3.009,3.009,0,0,1,18.033,30.056Z" transform="translate(3.006)" fill="none" stroke="#77838f" stroke-linecap="round" stroke-linejoin="round" stroke-width="2"/>
    <path id="Shape-4" data-name="Shape" d="M0,0V9.017" transform="translate(10.519 13.525)" fill="none" stroke="#77838f" stroke-linecap="round" stroke-linejoin="round" stroke-width="2"/>
    <path id="Shape-5" data-name="Shape" d="M0,0V9.017" transform="translate(16.531 13.525)" fill="none" stroke="#77838f" stroke-linecap="round" stroke-linejoin="round" stroke-width="2"/>
  </g>
</svg>
